<svg xmlns="http://www.w3.org/2000/svg" viewBox="0 0 480 40.8"><path d="M16.2 19.8c1.2.2 2.3.5 3.4.9s2.1 1 2.9 1.8c.8.8 1.5 1.7 1.9 2.7.5 1 .7 2.3.7 3.6 0 2.1-.4 3.8-1.3 5.1-.8 1.3-1.9 2.4-3.3 3.1-1.4.7-3 1.3-4.8 1.6-1.7.3-3.6.4-5.5.4H0V.6h10.2c2.1 0 4 .2 5.7.5 1.7.3 3.2.8 4.4 1.6 1.2.7 2.1 1.7 2.8 3 .6 1.2.9 2.7.9 4.6 0 2.7-.7 4.8-2.1 6.4-1.4 1.4-3.3 2.5-5.7 3.1zM5.4 5.4v12H9c1.2 0 2.4-.1 3.5-.2 1.2-.1 2.2-.4 3.1-.8.9-.4 1.6-1 2.2-1.8.5-.8.8-1.9.8-3.2 0-2.4-.8-4-2.5-4.8s-3.2-1.2-4.8-1.2H5.4zm4.2 29.4c1.2 0 2.3-.1 3.5-.2 1.2-.2 2.2-.5 3.1-1 .9-.5 1.6-1.2 2.2-2 .5-.9.8-2 .8-3.3 0-1.5-.3-2.7-.9-3.5-.6-.9-1.4-1.6-2.4-2-1-.4-2.1-.7-3.3-.9-1.2-.1-2.4-.2-3.6-.2H5.4v13.2h4.2zM47.4.6h5.4L70.2 39h-6L60 29.4H40.8L36.6 39h-6L47.4.6zM42 25.2h15.6L49.8 6 42 25.2zm60.6 6.6V.6h5.4v39h-7.2L83.4 7.8V39H78V.6h7.2l17.4 31.2zm34.2-9V18h13.8v20.4c-1.2.3-2.8.7-4.7 1.1-1.9.4-4.3.7-7.3.7s-5.8-.5-8.3-1.5c-2.5-1-4.6-2.4-6.4-4.2-1.8-1.8-3.2-4-4.2-6.4-1-2.5-1.5-5.3-1.5-8.3 0-3 .5-5.7 1.5-8.1 1-2.5 2.4-4.5 4.2-6.3 1.8-1.7 4-3 6.4-4 2.5-.9 5.3-1.4 8.3-1.4 3 0 5.3.2 6.8.5 1.6.3 3.1.8 4.6 1.4v6c-1.5-.9-3-1.6-4.7-2.1-1.6-.5-3.5-.6-5.6-.3-2.3 0-4.3.4-6.1 1.1-1.9.8-3.4 1.9-4.8 3.2-1.3 1.3-2.3 2.9-3.1 4.8-.7 1.8-1.1 3.8-1.1 5.9 0 2.3.4 4.3 1.1 6.1.8 1.9 1.8 3.4 3.1 4.8 1.3 1.3 2.8 2.3 4.6 3 1.7.7 3.6 1.1 5.5 1.1 1.8 0 3.1-.1 3.9-.3.8-.2 1.5-.3 2.1-.3v-12h-8.1zm71.4 2.4l-4.2 4.2 5.4 6-3.6 3.6-.7-.7-1.6-1.6-1.8-1.8-1.3-1.3-1.6 1.6c-.5.4-1.1 1.1-2 2-.9.9-2 1.6-3.2 2.3-1.2.6-2.5 1-3.9 1.1-1.4.1-2.8-.1-4.3-.6s-2.9-1.5-4.2-2.8c-1.4-1.4-2.3-2.8-2.7-4.3-.4-1.5-.6-3-.5-4.4.1-1.4.5-2.7 1.1-4 .6-1.2 1.3-2.2 2-2.9l2-2 1.6-1.6-2.3-2.3c-1.2-1.2-1.9-3.1-1.9-5.5 0-1.2.2-2.4.7-3.5.4-1.2 1.1-2.2 1.9-3.1.8-.9 1.8-1.6 3-2.2 1.2-.5 2.6-.8 4-.8 2.1 0 4.3 1 6.6 3l-3.6 3.6c-.3-.3-.6-.6-1-.8-.4-.2-1.1-.4-1.9-.4-.9 0-1.8.4-2.8 1.2-1 .8-1.4 1.8-1.4 3 0 .9.4 1.9 1.2 3 .5.4 1.4 1.4 2.7 2.7l4.2 4.2L198 24l1.7 1.7 4.2-4.2 4.3 3.7zm-12 4.2l-7.8-7.8-3.6 3.6c-.9.9-1.4 2.1-1.6 3.7-.2 1.6.4 2.9 1.6 4.1 1.2 1.2 2.6 1.7 4.1 1.6 1.6-.1 2.8-.7 3.7-1.6 1.2-.9 2.4-2.1 3.6-3.6zm58.7-27.9c2.3 1 4.3 2.4 5.9 4.1 1.6 1.8 2.8 3.9 3.7 6.3.9 2.4 1.3 5 1.3 7.9 0 2.9-.4 5.5-1.2 7.9-.8 2.4-2 4.5-3.6 6.3-1.6 1.8-3.5 3.1-5.8 4.1-2.3 1-5 1.5-8 1.5s-5.7-.5-8-1.4c-2.3-.9-4.3-2.3-5.8-4-1.6-1.7-2.8-3.8-3.6-6.2-.8-2.4-1.2-5.2-1.2-8.2 0-2.9.4-5.5 1.2-7.9.8-2.4 2-4.5 3.6-6.3 1.6-1.8 3.5-3.1 5.8-4.1 2.3-1 5-1.5 8-1.5 2.9 0 5.4.5 7.7 1.5zM253 33.6c1.6-.8 2.9-1.9 3.9-3.3s1.7-3 2.2-4.8c.5-1.8.7-3.7.7-5.7 0-1.9-.3-3.8-.8-5.6-.5-1.8-1.3-3.4-2.4-4.8-1.1-1.4-2.4-2.5-3.9-3.3-1.6-.8-3.4-1.3-5.5-1.3s-3.9.4-5.5 1.3c-1.6.8-2.9 2-3.9 3.3-1 1.4-1.8 3-2.4 4.8-.5 1.8-.8 3.7-.8 5.6 0 2 .2 3.8.7 5.7.5 1.8 1.2 3.4 2.2 4.8 1 1.4 2.3 2.5 3.9 3.3 1.6.8 3.5 1.2 5.8 1.2s4.2-.4 5.8-1.2zm29-33v33.6h16.2V39h-21.6V.6h5.4zm48 22.2V.6h6v22.8c0 2.7-.3 5.1-1 7.2-.7 2.1-1.6 3.9-2.9 5.3-1.3 1.4-2.8 2.5-4.7 3.2-1.9.7-4 1.1-6.4 1.1-2.4 0-4.5-.4-6.4-1.1-1.9-.7-3.4-1.8-4.7-3.2-1.3-1.4-2.3-3.2-2.9-5.3-.7-2.1-1-4.5-1-7.2V.6h5.4v22.2c0 1.8.1 3.5.4 5 .3 1.5.7 2.9 1.4 4s1.6 2 2.7 2.6c1.2.7 2.7 1 4.4 1 1.8 0 3.3-.3 4.6-1 1.2-.6 2.2-1.5 3-2.6.7-1.1 1.3-2.5 1.6-4 .4-1.5.5-3.2.5-5zM349.2 39V.6h20.4v4.8h-15v11.4H369v4.8h-14.4V39h-5.4zm37.2-28.8c0 1.8.8 3.2 2.5 4.1 1.7.9 3.6 2 5.6 3 2 1.1 3.9 2.5 5.6 4.3 1.7 1.8 2.5 4.4 2.5 7.8 0 2.1-.4 3.9-1.1 5.3-.7 1.4-1.7 2.6-2.9 3.5s-2.7 1.6-4.4 1.9c-1.7.4-3.5.6-5.5.6-1.2 0-2.5-.2-3.9-.7-1.4-.4-2.7-.8-3.9-1.1l.6-5.4c.9.3 2.1.7 3.5 1.1 1.4.5 2.8.7 4.3.7 1.8 0 3.6-.5 5.3-1.5 1.7-1 2.6-2.7 2.6-5.1 0-2.1-.9-3.7-2.6-4.7-1.8-1-3.7-2-5.8-3-2.1-1-4-2.2-5.8-3.6-1.8-1.5-2.6-3.7-2.6-6.7 0-1.8.3-3.4.9-4.7.7-1.4 1.5-2.5 2.6-3.4 1.1-.9 2.4-1.6 4-2 1.5-.4 3.2-.7 5-.7 1.2 0 2.5.2 3.9.5s2.7.8 3.9 1.4l-.6 4.8c-1.5-.6-2.7-1.1-3.6-1.4s-2.1-.5-3.6-.5-3 .4-4.4 1.1c-1.4.9-2.1 2.3-2.1 4.4zM415.2 39V.6h21.6v4.8h-16.2v11.4H435v4.8h-14.4v12.6h16.2V39h-21.6zM480 .6v39h-7.2L455.4 7.8V39H450V.6h7.8l16.8 31.2V.6h5.4z" fill="#fff"/></svg>