<svg xmlns="http://www.w3.org/2000/svg" viewBox="0 0 480 40.8">
<style type="text/css">
	.st0{fill:#FFFFFF;}
</style>
<path id="XMLID_3_" class="st0" d="M16.2,19.8c1.2,0.2,2.3,0.5,3.4,0.9c1.1,0.4,2.1,1,2.9,1.8c0.8,0.8,1.5,1.7,1.9,2.7
		c0.5,1,0.7,2.3,0.7,3.6c0,2.1-0.4,3.8-1.3,5.1c-0.8,1.3-1.9,2.4-3.3,3.1c-1.4,0.7-3,1.3-4.8,1.6C14,38.9,12.1,39,10.2,39H0V0.6
		h10.2c2.1,0,4,0.2,5.7,0.5c1.7,0.3,3.2,0.8,4.4,1.6c1.2,0.7,2.1,1.7,2.8,3c0.6,1.2,0.9,2.7,0.9,4.6c0,2.7-0.7,4.8-2.1,6.4
		C20.5,18.1,18.6,19.2,16.2,19.8z M5.4,5.4v12H9c1.2,0,2.4-0.1,3.5-0.2c1.2-0.1,2.2-0.4,3.1-0.8c0.9-0.4,1.6-1,2.2-1.8
		c0.5-0.8,0.8-1.9,0.8-3.2c0-2.4-0.8-4-2.5-4.8s-3.2-1.2-4.8-1.2H5.4z M9.6,34.8c1.2,0,2.3-0.1,3.5-0.2c1.2-0.2,2.2-0.5,3.1-1
		c0.9-0.5,1.6-1.2,2.2-2c0.5-0.9,0.8-2,0.8-3.3c0-1.5-0.3-2.7-0.9-3.5c-0.6-0.9-1.4-1.6-2.4-2c-1-0.4-2.1-0.7-3.3-0.9
		c-1.2-0.1-2.4-0.2-3.6-0.2H5.4v13.2H9.6z M47.4,0.6h5.4L70.2,39h-6L60,29.4H40.8L36.6,39h-6L47.4,0.6z M42,25.2h15.6L49.8,6
		L42,25.2z M102.6,31.8V0.6h5.4v39h-7.2L83.4,7.8V39H78V0.6h7.2L102.6,31.8z M136.8,22.8V18h13.8v20.4c-1.2,0.3-2.8,0.7-4.7,1.1
		c-1.9,0.4-4.3,0.7-7.3,0.7c-3,0-5.8-0.5-8.3-1.5c-2.5-1-4.6-2.4-6.4-4.2c-1.8-1.8-3.2-4-4.2-6.4c-1-2.5-1.5-5.3-1.5-8.3
		c0-3,0.5-5.7,1.5-8.1c1-2.5,2.4-4.5,4.2-6.3c1.8-1.7,4-3,6.4-4c2.5-0.9,5.3-1.4,8.3-1.4c3,0,5.3,0.2,6.8,0.5
		c1.6,0.3,3.1,0.8,4.6,1.4v6c-1.5-0.9-3-1.6-4.7-2.1c-1.6-0.5-3.5-0.6-5.6-0.3c-2.3,0-4.3,0.4-6.1,1.1c-1.9,0.8-3.4,1.9-4.8,3.2
		c-1.3,1.3-2.3,2.9-3.1,4.8c-0.7,1.8-1.1,3.8-1.1,5.9c0,2.3,0.4,4.3,1.1,6.1c0.8,1.9,1.8,3.4,3.1,4.8c1.3,1.3,2.8,2.3,4.6,3
		c1.7,0.7,3.6,1.1,5.5,1.1c1.8,0,3.1-0.1,3.9-0.3c0.8-0.2,1.5-0.3,2.1-0.3v-12H136.8z M208.2,25.2l-4.2,4.2l5.4,6l-3.6,3.6l-0.7-0.7
		c-0.4-0.4-1-1-1.6-1.6c-0.6-0.6-1.2-1.2-1.8-1.8c-0.6-0.6-1-1-1.3-1.3c-0.6,0.6-1.1,1.1-1.6,1.6c-0.5,0.4-1.1,1.1-2,2
		c-0.9,0.9-2,1.6-3.2,2.3c-1.2,0.6-2.5,1-3.9,1.1c-1.4,0.1-2.8-0.1-4.3-0.6c-1.5-0.5-2.9-1.5-4.2-2.8c-1.4-1.4-2.3-2.8-2.7-4.3
		c-0.4-1.5-0.6-3-0.5-4.4c0.1-1.4,0.5-2.7,1.1-4c0.6-1.2,1.3-2.2,2-2.9c0.6-0.6,1.3-1.3,2-2c0.7-0.7,1.3-1.3,1.6-1.6
		c-0.3-0.3-1.1-1.1-2.3-2.3s-1.9-3.1-1.9-5.5c0-1.2,0.2-2.4,0.7-3.5c0.4-1.2,1.1-2.2,1.9-3.1c0.8-0.9,1.8-1.6,3-2.2
		c1.2-0.5,2.6-0.8,4-0.8c2.1,0,4.3,1,6.6,3c-2.1,2.1-3.3,3.3-3.6,3.6c-0.3-0.3-0.6-0.6-1-0.8c-0.4-0.2-1.1-0.4-1.9-0.4
		c-0.9,0-1.8,0.4-2.8,1.2c-1,0.8-1.4,1.8-1.4,3c0,0.9,0.4,1.9,1.2,3c0.5,0.4,1.4,1.4,2.7,2.7c1.4,1.4,2.8,2.8,4.2,4.2
		c1.5,1.5,2.8,2.8,3.9,3.9l1.7,1.7l4.2-4.2L208.2,25.2z M196.2,29.4l-7.8-7.8c-1.5,1.5-2.7,2.7-3.6,3.6c-0.9,0.9-1.4,2.1-1.6,3.7
		c-0.2,1.6,0.4,2.9,1.6,4.1c1.2,1.2,2.6,1.7,4.1,1.6c1.6-0.1,2.8-0.7,3.7-1.6C193.8,32.1,195,30.9,196.2,29.4z M254.9,1.5
		c2.3,1,4.3,2.4,5.9,4.1c1.6,1.8,2.8,3.9,3.7,6.3c0.9,2.4,1.3,5,1.3,7.9c0,2.9-0.4,5.5-1.2,7.9c-0.8,2.4-2,4.5-3.6,6.3
		c-1.6,1.8-3.5,3.1-5.8,4.1c-2.3,1-5,1.5-8,1.5c-3,0-5.7-0.5-8-1.4c-2.3-0.9-4.3-2.3-5.8-4c-1.6-1.7-2.8-3.8-3.6-6.2
		c-0.8-2.4-1.2-5.2-1.2-8.2c0-2.9,0.4-5.5,1.2-7.9c0.8-2.4,2-4.5,3.6-6.3c1.6-1.8,3.5-3.1,5.8-4.1c2.3-1,5-1.5,8-1.5
		C250.1,0,252.6,0.5,254.9,1.5z M253,33.6c1.6-0.8,2.9-1.9,3.9-3.3s1.7-3,2.2-4.8c0.5-1.8,0.7-3.7,0.7-5.7c0-1.9-0.3-3.8-0.8-5.6
		c-0.5-1.8-1.3-3.4-2.4-4.8c-1.1-1.4-2.4-2.5-3.9-3.3c-1.6-0.8-3.4-1.3-5.5-1.3c-2.1,0-3.9,0.4-5.5,1.3c-1.6,0.8-2.9,2-3.9,3.3
		c-1,1.4-1.8,3-2.4,4.8c-0.5,1.8-0.8,3.7-0.8,5.6c0,2,0.2,3.8,0.7,5.7c0.5,1.8,1.2,3.4,2.2,4.8c1,1.4,2.3,2.5,3.9,3.3
		c1.6,0.8,3.5,1.2,5.8,1.2C249.5,34.8,251.4,34.4,253,33.6z M282,0.6v33.6h16.2V39h-21.6V0.6H282z M330,22.8V0.6h6v22.8
		c0,2.7-0.3,5.1-1,7.2c-0.7,2.1-1.6,3.9-2.9,5.3c-1.3,1.4-2.8,2.5-4.7,3.2c-1.9,0.7-4,1.1-6.4,1.1c-2.4,0-4.5-0.4-6.4-1.1
		c-1.9-0.7-3.4-1.8-4.7-3.2c-1.3-1.4-2.3-3.2-2.9-5.3c-0.7-2.1-1-4.5-1-7.2V0.6h5.4v22.2c0,1.8,0.1,3.5,0.4,5c0.3,1.5,0.7,2.9,1.4,4
		c0.7,1.1,1.6,2,2.7,2.6c1.2,0.7,2.7,1,4.4,1c1.8,0,3.3-0.3,4.6-1c1.2-0.6,2.2-1.5,3-2.6c0.7-1.1,1.3-2.5,1.6-4
		C329.9,26.3,330,24.6,330,22.8z M349.2,39V0.6h20.4v4.8h-15v11.4H369v4.8h-14.4V39H349.2z M386.4,10.2c0,1.8,0.8,3.2,2.5,4.1
		c1.7,0.9,3.6,2,5.6,3c2,1.1,3.9,2.5,5.6,4.3c1.7,1.8,2.5,4.4,2.5,7.8c0,2.1-0.4,3.9-1.1,5.3c-0.7,1.4-1.7,2.6-2.9,3.5
		s-2.7,1.6-4.4,1.9c-1.7,0.4-3.5,0.6-5.5,0.6c-1.2,0-2.5-0.2-3.9-0.7c-1.4-0.4-2.7-0.8-3.9-1.1l0.6-5.4c0.9,0.3,2.1,0.7,3.5,1.1
		c1.4,0.5,2.8,0.7,4.3,0.7c1.8,0,3.6-0.5,5.3-1.5c1.7-1,2.6-2.7,2.6-5.1c0-2.1-0.9-3.7-2.6-4.7c-1.8-1-3.7-2-5.8-3
		c-2.1-1-4-2.2-5.8-3.6c-1.8-1.5-2.6-3.7-2.6-6.7c0-1.8,0.3-3.4,0.9-4.7c0.7-1.4,1.5-2.5,2.6-3.4c1.1-0.9,2.4-1.6,4-2
		c1.5-0.4,3.2-0.7,5-0.7c1.2,0,2.5,0.2,3.9,0.5c1.4,0.3,2.7,0.8,3.9,1.4l-0.6,4.8c-1.5-0.6-2.7-1.1-3.6-1.4s-2.1-0.5-3.6-0.5
		c-1.5,0-3,0.4-4.4,1.1C387.1,6.7,386.4,8.1,386.4,10.2z M415.2,39V0.6h21.6v4.8h-16.2v11.4H435v4.8h-14.4v12.6h16.2V39H415.2z
		 M480,0.6v39h-7.2L455.4,7.8V39H450V0.6h7.8l16.8,31.2V0.6H480z"/>
</svg>
